<?xml version="1.0" standalone="no"?>
<!DOCTYPE svg PUBLIC "-//W3C//DTD SVG 20010904//EN"
 "http://www.w3.org/TR/2001/REC-SVG-20010904/DTD/svg10.dtd">
<svg version="1.0" xmlns="http://www.w3.org/2000/svg"
 width="32.000000pt" height="32.000000pt" viewBox="0 0 32.000000 32.000000"
 preserveAspectRatio="xMidYMid meet">

<g transform="translate(0.000000,32.000000) scale(0.100000,-0.100000)"
fill="#000000" stroke="none">
<path d="M102 238 c-18 -24 -23 -56 -11 -82 12 -26 29 -35 29 -15 0 6 -5 19
-11 30 -7 14 -7 29 0 50 11 31 9 36 -7 17z"/>
<path d="M207 144 c-3 -3 -19 -7 -34 -8 -15 -2 -29 -7 -30 -12 -3 -15 49 -6
66 11 8 8 13 15 10 15 -3 0 -8 -3 -12 -6z"/>
</g>
</svg>
