<?xml version="1.0" encoding="UTF-8"?>
<svg version="1.1" xmlns="http://www.w3.org/2000/svg" width="32" height="32">
<path d="M0 0 C10.56 0 21.12 0 32 0 C32 10.56 32 21.12 32 32 C21.44 32 10.88 32 0 32 C0 21.44 0 10.88 0 0 Z " fill="#FDFEFE" transform="translate(0,0)"/>
<path d="M0 0 C4.0743356 0.84881992 5.54405875 2.30225596 8 5.625 C8.77367108 10.26702647 7.67360347 12.83739509 5 16.625 C6.65 16.955 8.3 17.285 10 17.625 C10 18.615 10 19.605 10 20.625 C6.79299911 21.6940003 4.43007931 21.75832529 1.0625 21.75 C-0.49791016 21.75386719 -0.49791016 21.75386719 -2.08984375 21.7578125 C-4.57665971 21.64432023 -6.63092407 21.34428571 -9 20.625 C-9 19.965 -9 19.305 -9 18.625 C-8.38125 18.480625 -7.7625 18.33625 -7.125 18.1875 C-4.96741678 17.69347775 -4.96741678 17.69347775 -3 16.625 C-3.825 15.92375 -4.65 15.2225 -5.5 14.5 C-8 11.625 -8 11.625 -8.625 8.625 C-7.58039389 3.61089068 -5.01410932 1.04460611 0 0 Z " fill="#4298CC" transform="translate(16,4.375)"/>
<path d="M0 0 C3 0.25 3 0.25 5 2.25 C5.25 5.25 5.25 5.25 5 8.25 C3 10.25 3 10.25 0 10.5 C-3 10.25 -3 10.25 -5 8.25 C-5.25 5.25 -5.25 5.25 -5 2.25 C-3 0.25 -3 0.25 0 0 Z " fill="#BFE1EF" transform="translate(16,7.75)"/>
<path d="M0 0 C0 0.99 0 1.98 0 3 C-3.20700089 4.0690003 -5.56992069 4.13332529 -8.9375 4.125 C-10.49791016 4.12886719 -10.49791016 4.12886719 -12.08984375 4.1328125 C-14.57665971 4.01932023 -16.63092407 3.71928571 -19 3 C-19 2.34 -19 1.68 -19 1 C-18.41863281 0.85949219 -17.83726563 0.71898437 -17.23828125 0.57421875 C-15.20349678 0.05220598 -13.19313861 -0.56279289 -11.1875 -1.1875 C-6.85335682 -2.3015293 -4.14276497 -1.55353686 0 0 Z " fill="#B8D1E3" transform="translate(26,22)"/>
<path d="M0 0 C-0.32742187 0.56203125 -0.65484375 1.1240625 -0.9921875 1.703125 C-2.11785494 4.26859964 -2.2068111 5.96842277 -2.125 8.75 C-2.10695313 9.54921875 -2.08890625 10.3484375 -2.0703125 11.171875 C-2.04710937 11.77515625 -2.02390625 12.3784375 -2 13 C-2.99 12.67 -3.98 12.34 -5 12 C-6.40457737 9.19084526 -6.24895157 7.11189466 -6 4 C-3.78947368 0 -3.78947368 0 0 0 Z " fill="#2577BF" transform="translate(14,6)"/>
<path d="M0 0 C4.01686987 -0.46707789 5.56501812 -0.32150834 8.875 2.125 C11.32150834 5.43498188 11.46707789 6.98313013 11 11 C10.01 10.67 9.02 10.34 8 10 C6.8125 6.9375 6.8125 6.9375 6 4 C4.35 3.67 2.7 3.34 1 3 C0.67 2.01 0.34 1.02 0 0 Z " fill="#5CC2DC" transform="translate(13,5)"/>
<path d="M0 0 C0.99 0 1.98 0 3 0 C2.01 2.97 1.02 5.94 0 9 C-0.33 9 -0.66 9 -1 9 C-1.625 5.625 -1.625 5.625 -2 2 C-1.34 1.34 -0.68 0.68 0 0 Z " fill="#3F9BCD" transform="translate(11,6)"/>
<path d="M0 0 C2.97 0 5.94 0 9 0 C9 0.66 9 1.32 9 2 C5.62182575 2.84454356 3.32534757 3.10844919 0 2 C0 1.34 0 0.68 0 0 Z " fill="#81C0D1" transform="translate(7,23)"/>
<path d="M0 0 C0.66 0 1.32 0 2 0 C2.309375 0.78375 2.61875 1.5675 2.9375 2.375 C3.92875038 4.92330128 3.92875038 4.92330128 5 7 C1.125 6.125 1.125 6.125 0 5 C-0.04063832 3.33382885 -0.042721 1.66611905 0 0 Z " fill="#F7FAFC" transform="translate(11,11)"/>
</svg>
